<svg width="21" height="21" viewBox="0 0 21 21" fill="none" xmlns="http://www.w3.org/2000/svg">
<path d="M10.5242 0.5C5.00418 0.5 0.53418 4.98 0.53418 10.5C0.53418 16.02 5.00418 20.5 10.5242 20.5C16.0542 20.5 20.5342 16.02 20.5342 10.5C20.5342 4.98 16.0542 0.5 10.5242 0.5ZM10.5342 18.5C6.11418 18.5 2.53418 14.92 2.53418 10.5C2.53418 6.08 6.11418 2.5 10.5342 2.5C14.9542 2.5 18.5342 6.08 18.5342 10.5C18.5342 14.92 14.9542 18.5 10.5342 18.5Z" fill="black"/>
<path d="M11.0342 5.5H9.53418V11.5L14.7842 14.65L15.5342 13.42L11.0342 10.75V5.5Z" fill="black"/>
</svg>
