<svg width="22" height="24" viewBox="0 0 22 24" fill="none" xmlns="http://www.w3.org/2000/svg">
<path d="M11.9945 11.7426L20.9637 1.69392C21.2794 1.34014 21.2794 0.766541 20.9637 0.4128C20.6479 0.0590597 20.1359 0.0590144 19.8202 0.4128L10.851 10.4615L1.8818 0.4128C1.56602 0.0590144 1.05404 0.0590144 0.7383 0.4128C0.42256 0.766586 0.42252 1.34018 0.7383 1.69392L9.70747 11.7426L0.7383 21.7912C0.42252 22.145 0.42252 22.7186 0.7383 23.0724C0.89617 23.2492 1.10312 23.3376 1.31007 23.3376C1.51702 23.3376 1.72393 23.2492 1.88184 23.0724L10.851 13.0237L19.8201 23.0724C19.978 23.2492 20.1849 23.3376 20.3919 23.3376C20.5988 23.3376 20.8058 23.2492 20.9637 23.0724C21.2794 22.7186 21.2794 22.145 20.9637 21.7912L11.9945 11.7426Z" fill="#B661FC"/>
</svg>
