<svg width="21" height="21" viewBox="0 0 21 21" fill="none" xmlns="http://www.w3.org/2000/svg">
<path d="M10.5339 2.87476C11.9839 2.87476 13.1589 4.04976 13.1589 5.49976C13.1589 6.94976 11.9839 8.12476 10.5339 8.12476C9.08394 8.12476 7.90894 6.94976 7.90894 5.49976C7.90894 4.04976 9.08394 2.87476 10.5339 2.87476ZM10.5339 14.1248C14.2464 14.1248 18.1589 15.9498 18.1589 16.7498V18.1248H2.90894V16.7498C2.90894 15.9498 6.82144 14.1248 10.5339 14.1248ZM10.5339 0.499756C7.77144 0.499756 5.53394 2.73726 5.53394 5.49976C5.53394 8.26226 7.77144 10.4998 10.5339 10.4998C13.2964 10.4998 15.5339 8.26226 15.5339 5.49976C15.5339 2.73726 13.2964 0.499756 10.5339 0.499756ZM10.5339 11.7498C7.19644 11.7498 0.533936 13.4248 0.533936 16.7498V20.4998H20.5339V16.7498C20.5339 13.4248 13.8714 11.7498 10.5339 11.7498Z" fill="black"/>
</svg>
